<svg class="diagram-root" style="background: #f5f6f6" xmlns="http://www.w3.org/2000/svg" xmlns:xlink="http://www.w3.org/1999/xlink"><style>.diagram-root { font-family: "Helvetica Neue", sans-serif; font-size: 12px; } .t { overflow: visible; } .t-bg { y: 40; fill: #fff;   } .th { fill: #005aa0;   } .tht { fill: #fff; font-size: 14px;  } .tf { fill: #323c46; overflow: visible; } .tf.pk { fill: #005aa0; font-weight: bold; } .tf.fk { font-weight: bold; } .ty { fill: #adb1b5; font-weight: normal; text-anchor: end; } .r { fill: transparent; stroke: #c3c3c3; stroke-width: 1; } .l { stroke: 1; } .i { fill: #c2c7ce; stroke: #c2c7ce; } .i.ix { fill: #afb3b6; stroke: #000; } .fa { fill: transparent; overflow: visible; } .fa .bg.hover { fill: #f7f7f7; } .c { cy: 12; r: 4; stroke: #d2d2dc; fill: #d2d2dc; } .hr { fill: transparent; stroke: #323c46; stroke-opacity: 0.035; stroke-width: 13; } .dc { stroke: #fa5a3c; fill: #fa5a3c; } .x { stroke: white; stroke-width: 1; } .hl .th { fill: #1b9bff; } .hl .tht {  } .fhl .bg { fill: #e7f4ff; } .fhls .bg {  } .r.hl { stroke: #1b9bff; } .dim { opacity: 0.25; }</style><g class="drawing-wrapper" transform="translate(66.5, 77.5) scale(1,1)"><g class="rs"><path d="M -44.5 273.33000000000004 m -1, 0 a 1,1 0 1,0 2,0 a 1,1 0 1,0 -2,0 M -44.5 273.33000000000004 m -0.5, 0 a 0.5,0.5 0 1,0 1,0 a 0.5,0.5 0 1,0 -1,0  M-44.5 273.33000000000004 L-44.5 273.33000000000004 -56.5 273.33000000000004 M-50.5 279.33000000000004 L-50.5 279.33000000000004 -50.5 267.33000000000004 M-56.5 273.33000000000004 C -106.5 273.33000000000004, -108.798 9.5, -52.67 9.5 M -40.67 9.5 m -1, 0 a 1,1 0 1,0 2,0 a 1,1 0 1,0 -2,0 M -40.67 9.5 m -0.5, 0 a 0.5,0.5 0 1,0 1,0 a 0.5,0.5 0 1,0 -1,0  M-40.67 9.5 L-40.67 9.5 -52.67 9.5 M-46.67 15.5 L-46.67 15.5 -46.67 3.5" id="h1537058300" class="r"></path><path d="M 362.33 328.5 m -1, 0 a 1,1 0 1,0 2,0 a 1,1 0 1,0 -2,0 M 362.33 328.5 m -0.5, 0 a 0.5,0.5 0 1,0 1,0 a 0.5,0.5 0 1,0 -1,0  M362.33 328.5 L362.33 328.5 350.33 328.5 M 362.33 334.5 m -1, 0 a 1,1 0 1,0 2,0 a 1,1 0 1,0 -2,0 M 362.33 334.5 m -0.5, 0 a 0.5,0.5 0 1,0 1,0 a 0.5,0.5 0 1,0 -1,0  M362.33 334.5 L362.33 334.5 355.33 328.5 362.33 322.5 M 362.33 322.5 m -1, 0 a 1,1 0 1,0 2,0 a 1,1 0 1,0 -2,0 M 362.33 322.5 m -0.5, 0 a 0.5,0.5 0 1,0 1,0 a 0.5,0.5 0 1,0 -1,0  M350.33 328.5 C 293.17923156038546 328.5, 297.27723156038553 190, 343.5 190 M 355.5 190 m -1, 0 a 1,1 0 1,0 2,0 a 1,1 0 1,0 -2,0 M 355.5 190 m -0.5, 0 a 0.5,0.5 0 1,0 1,0 a 0.5,0.5 0 1,0 -1,0  M355.5 190 L355.5 190 343.5 190 M349.5 196 L349.5 196 349.5 184" id="h1397587031" class="r"></path><path d="M 362.33 353.5 m -1, 0 a 1,1 0 1,0 2,0 a 1,1 0 1,0 -2,0 M 362.33 353.5 m -0.5, 0 a 0.5,0.5 0 1,0 1,0 a 0.5,0.5 0 1,0 -1,0  M362.33 353.5 L362.33 353.5 350.33 353.5 M 362.33 359.5 m -1, 0 a 1,1 0 1,0 2,0 a 1,1 0 1,0 -2,0 M 362.33 359.5 m -0.5, 0 a 0.5,0.5 0 1,0 1,0 a 0.5,0.5 0 1,0 -1,0  M362.33 359.5 L362.33 359.5 355.33 353.5 362.33 347.5 M 362.33 347.5 m -1, 0 a 1,1 0 1,0 2,0 a 1,1 0 1,0 -2,0 M 362.33 347.5 m -0.5, 0 a 0.5,0.5 0 1,0 1,0 a 0.5,0.5 0 1,0 -1,0  M350.33 353.5 Q 300.41 353.5, 250.5 300.92 T 150.66 248.33 M 138.66 248.33 m -1, 0 a 1,1 0 1,0 2,0 a 1,1 0 1,0 -2,0 M 138.66 248.33 m -0.5, 0 a 0.5,0.5 0 1,0 1,0 a 0.5,0.5 0 1,0 -1,0  M138.66 248.33 L138.66 248.33 150.66 248.33 M144.66 254.33 L144.66 254.33 144.66 242.33" id="h2286254435" class="r"></path><path d="M 358.5 50.33 m -1, 0 a 1,1 0 1,0 2,0 a 1,1 0 1,0 -2,0 M 358.5 50.33 m -0.5, 0 a 0.5,0.5 0 1,0 1,0 a 0.5,0.5 0 1,0 -1,0  M358.5 50.33 L358.5 50.33 346.5 50.33 M 358.5 56.33 m -1, 0 a 1,1 0 1,0 2,0 a 1,1 0 1,0 -2,0 M 358.5 56.33 m -0.5, 0 a 0.5,0.5 0 1,0 1,0 a 0.5,0.5 0 1,0 -1,0  M358.5 56.33 L358.5 56.33 351.5 50.33 358.5 44.33 M 358.5 44.33 m -1, 0 a 1,1 0 1,0 2,0 a 1,1 0 1,0 -2,0 M 358.5 44.33 m -0.5, 0 a 0.5,0.5 0 1,0 1,0 a 0.5,0.5 0 1,0 -1,0  M346.5 50.33 Q 297.54 50.33, 248.58 149.33 T 150.66 248.33 M 138.66 248.33 m -1, 0 a 1,1 0 1,0 2,0 a 1,1 0 1,0 -2,0 M 138.66 248.33 m -0.5, 0 a 0.5,0.5 0 1,0 1,0 a 0.5,0.5 0 1,0 -1,0  M138.66 248.33 L138.66 248.33 150.66 248.33 M144.66 254.33 L144.66 254.33 144.66 242.33" id="h1139284389" class="r"></path><path d="M 358.5 75.33 m -1, 0 a 1,1 0 1,0 2,0 a 1,1 0 1,0 -2,0 M 358.5 75.33 m -0.5, 0 a 0.5,0.5 0 1,0 1,0 a 0.5,0.5 0 1,0 -1,0  M358.5 75.33 L358.5 75.33 346.5 75.33 M 358.5 81.33 m -1, 0 a 1,1 0 1,0 2,0 a 1,1 0 1,0 -2,0 M 358.5 81.33 m -0.5, 0 a 0.5,0.5 0 1,0 1,0 a 0.5,0.5 0 1,0 -1,0  M358.5 81.33 L358.5 81.33 351.5 75.33 358.5 69.33 M 358.5 69.33 m -1, 0 a 1,1 0 1,0 2,0 a 1,1 0 1,0 -2,0 M 358.5 69.33 m -0.5, 0 a 0.5,0.5 0 1,0 1,0 a 0.5,0.5 0 1,0 -1,0  M346.5 75.33 C 303.46358788914534 75.33, 305.26358788914536 190, 343.5 190 M 355.5 190 m -1, 0 a 1,1 0 1,0 2,0 a 1,1 0 1,0 -2,0 M 355.5 190 m -0.5, 0 a 0.5,0.5 0 1,0 1,0 a 0.5,0.5 0 1,0 -1,0  M355.5 190 L355.5 190 343.5 190 M349.5 196 L349.5 196 349.5 184" id="h1607168654" class="r"></path><path d="M 124.2 128.16 m -1, 0 a 1,1 0 1,0 2,0 a 1,1 0 1,0 -2,0 M 124.2 128.16 m -0.5, 0 a 0.5,0.5 0 1,0 1,0 a 0.5,0.5 0 1,0 -1,0  M124.2 128.16 L124.2 128.16 136.2 128.16 M 124.2 134.16 m -1, 0 a 1,1 0 1,0 2,0 a 1,1 0 1,0 -2,0 M 124.2 134.16 m -0.5, 0 a 0.5,0.5 0 1,0 1,0 a 0.5,0.5 0 1,0 -1,0  M124.2 134.16 L124.2 134.16 131.2 128.16 124.2 122.16 M 124.2 122.16 m -1, 0 a 1,1 0 1,0 2,0 a 1,1 0 1,0 -2,0 M 124.2 122.16 m -0.5, 0 a 0.5,0.5 0 1,0 1,0 a 0.5,0.5 0 1,0 -1,0  M136.2 128.16 C 199.68161865239455 128.16, 191.00561865239453 248.33, 150.66 248.33 M 138.66 248.33 m -1, 0 a 1,1 0 1,0 2,0 a 1,1 0 1,0 -2,0 M 138.66 248.33 m -0.5, 0 a 0.5,0.5 0 1,0 1,0 a 0.5,0.5 0 1,0 -1,0  M138.66 248.33 L138.66 248.33 150.66 248.33 M144.66 254.33 L144.66 254.33 144.66 242.33" id="h3177548053" class="r"></path></g><g class="hrs"></g><g class="ts"><svg width="183.16" height="225" x="-44.5" y="191.33" id="h1639608377" class="t"><rect height="40" width="183.16" class="th"></rect><text x="13" y="25" class="tht">employees</text><rect height="185" width="183.16" class="t-bg"></rect><text x="13" y="61" class="tf pk">emp_no<tspan x="170.16" class="ty">INTEGER</tspan></text><path d="M7,14A2,2 0 0,1 5,12A2,2 0 0,1 7,10A2,2 0 0,1 9,12A2,2 0 0,1 7,14M12.65,10C11.83,7.67 9.61,6 7, 6A6, 6 0 0, 0 1, 12A6, 6 0 0, 0 7, 18C9.61, 18 11.83, 16.33 12.65, 14H17V18H21V14H23V10H12.65Z" class="i pk" transform="translate(96.822109375, 48) scale(0.65)"></path><text x="13" y="86" class="tf fk">emp_title_id<tspan x="170.16" class="ty">VARCHAR(5)</tspan></text><text x="13" y="111" class="tf">birth_date<tspan x="170.16" class="ty">DATE</tspan></text><text x="13" y="136" class="tf">first_name<tspan x="170.16" class="ty">VARCHAR(20)</tspan></text><text x="13" y="161" class="tf">last_name<tspan x="170.16" class="ty">VARCHAR(20)</tspan></text><text x="13" y="186" class="tf">sex<tspan x="170.16" class="ty">VARCHAR(1)</tspan></text><text x="13" y="211" class="tf">hire_date<tspan x="170.16" class="ty">VARCHAR(10)</tspan></text></svg><svg width="173.14" height="100" x="-40.67" y="-47.5" id="h311790747" class="t"><rect height="40" width="173.14" class="th"></rect><text x="13" y="25" class="tht">titles</text><rect height="60" width="173.14" class="t-bg"></rect><text x="13" y="61" class="tf pk">title_id<tspan x="160.14" class="ty">VARCHAR(5)</tspan></text><path d="M7,14A2,2 0 0,1 5,12A2,2 0 0,1 7,10A2,2 0 0,1 9,12A2,2 0 0,1 7,14M12.65,10C11.83,7.67 9.61,6 7, 6A6, 6 0 0, 0 1, 12A6, 6 0 0, 0 7, 18C9.61, 18 11.83, 16.33 12.65, 14H17V18H21V14H23V10H12.65Z" class="i pk" transform="translate(67.68296874999999, 48) scale(0.65)"></path><text x="13" y="86" class="tf">title<tspan x="160.14" class="ty">VARCHAR(18)</tspan></text></svg><svg width="185.18" height="100" x="355.5" y="133" id="h475896179" class="t"><rect height="40" width="185.18" class="th"></rect><text x="13" y="25" class="tht">departments</text><rect height="60" width="185.18" class="t-bg"></rect><text x="13" y="61" class="tf pk">dept_no<tspan x="172.18" class="ty">VARCHAR(4)</tspan></text><path d="M7,14A2,2 0 0,1 5,12A2,2 0 0,1 7,10A2,2 0 0,1 9,12A2,2 0 0,1 7,14M12.65,10C11.83,7.67 9.61,6 7, 6A6, 6 0 0, 0 1, 12A6, 6 0 0, 0 7, 18C9.61, 18 11.83, 16.33 12.65, 14H17V18H21V14H23V10H12.65Z" class="i pk" transform="translate(79.72296875, 48) scale(0.65)"></path><text x="13" y="86" class="tf">dept_name<tspan x="172.18" class="ty">VARCHAR(18)</tspan></text></svg><svg width="161.83" height="100" x="362.33" y="271.5" id="h1676682957" class="t"><rect height="40" width="161.83" class="th"></rect><text x="13" y="25" class="tht">dept_manager</text><rect height="60" width="161.83" class="t-bg"></rect><text x="13" y="61" class="tf fk">dept_no<tspan x="148.83" class="ty">VARCHAR(4)</tspan></text><text x="13" y="86" class="tf fk">emp_no<tspan x="148.83" class="ty">INTEGER</tspan></text></svg><svg width="161.83" height="100" x="358.5" y="-6.67" id="h1090417462" class="t"><rect height="40" width="161.83" class="th"></rect><text x="13" y="25" class="tht">dept_emp</text><rect height="60" width="161.83" class="t-bg"></rect><text x="13" y="61" class="tf fk">emp_no<tspan x="148.83" class="ty">INTEGER</tspan></text><text x="13" y="86" class="tf fk">dept_no<tspan x="148.83" class="ty">VARCHAR(4)</tspan></text></svg><svg width="142.7" height="100" x="-18.5" y="71.16" id="h2472833127" class="t"><rect height="40" width="142.7" class="th"></rect><text x="13" y="25" class="tht">salaries</text><rect height="60" width="142.7" class="t-bg"></rect><text x="13" y="61" class="tf fk">emp_no<tspan x="129.7" class="ty">INTEGER</tspan></text><text x="13" y="86" class="tf">salary<tspan x="129.7" class="ty">INTEGER</tspan></text></svg></g></g><text class="qdbd-link" x="10" y="20">www.quickdatabasediagrams.com</text></svg>